<?xml version="1.0" standalone="no"?>
<!DOCTYPE svg PUBLIC "-//W3C//DTD SVG 20010904//EN"
 "http://www.w3.org/TR/2001/REC-SVG-20010904/DTD/svg10.dtd">
<svg version="1.0" xmlns="http://www.w3.org/2000/svg"
 width="600.000000pt" height="336.000000pt" viewBox="0 0 600.000000 336.000000"
 preserveAspectRatio="xMidYMid meet">

<g transform="translate(0.000000,336.000000) scale(0.100000,-0.100000)"
fill="#000000" stroke="none">
<path d="M4087 2393 c-16 -15 -6 -33 18 -33 23 0 24 2 15 20 -11 21 -22 25
-33 13z"/>
<path d="M5792 2388 c-18 -18 -15 -28 8 -28 13 0 20 7 20 20 0 23 -10 26 -28
8z"/>
<path d="M5860 2375 c0 -17 2 -18 24 -9 23 9 20 24 -4 24 -11 0 -20 -7 -20
-15z"/>
<path d="M5210 2370 c0 -5 9 -10 21 -10 11 0 17 5 14 10 -3 6 -13 10 -21 10
-8 0 -14 -4 -14 -10z"/>
<path d="M2257 2363 c-4 -3 -7 -15 -7 -25 0 -14 8 -18 35 -18 36 0 46 15 23
38 -13 13 -41 16 -51 5z"/>
<path d="M2450 2335 c-11 -13 -5 -15 45 -15 50 0 56 2 45 15 -7 8 -27 15 -45
15 -18 0 -38 -7 -45 -15z"/>
<path d="M765 2313 c7 -28 13 -40 18 -32 1 2 13 16 26 32 l24 27 -37 0 c-37 0
-38 -1 -31 -27z"/>
<path d="M2064 2329 c-3 -5 9 -9 25 -9 17 0 31 2 31 4 0 8 -51 13 -56 5z"/>
<path d="M1658 2323 c12 -2 32 -2 45 0 12 2 2 4 -23 4 -25 0 -35 -2 -22 -4z"/>
<path d="M1980 2289 l-25 -19 33 11 c22 8 36 8 45 1 19 -16 76 -12 70 4 -6 17
-20 18 -26 2 -3 -10 -10 -10 -33 2 -16 8 -31 15 -34 16 -3 1 -17 -6 -30 -17z"/>
<path d="M2650 2300 c-9 -6 -10 -10 -3 -10 6 0 15 5 18 10 8 12 4 12 -15 0z"/>
<path d="M3315 2301 c3 -2 0 -10 -6 -18 -9 -10 -8 -13 1 -13 8 0 11 -2 8 -5
-2 -3 -19 2 -36 11 -18 8 -38 13 -45 10 -7 -3 -3 -7 10 -11 13 -4 20 -11 18
-16 -3 -4 -13 -6 -23 -3 -14 5 -14 4 -2 -4 8 -6 17 -9 21 -6 4 2 94 4 200 5
168 1 190 3 164 14 -29 13 -29 13 28 16 58 4 74 -5 35 -20 -14 -5 27 -8 107
-9 86 -1 125 2 115 8 -11 7 -5 10 23 10 25 0 36 4 31 11 -3 6 -15 9 -25 6 -10
-3 -22 -1 -25 4 -7 12 -44 12 -44 0 0 -5 6 -12 13 -14 6 -3 0 -6 -15 -6 -26
-1 -51 18 -26 20 7 0 0 5 -16 9 -16 5 -33 7 -37 5 -7 -5 -121 -5 -204 -1 -49
2 -72 -4 -55 -14 19 -12 -2 -17 -40 -9 -26 5 -28 7 -11 8 41 2 16 13 -39 16
-44 3 -50 2 -40 -11 10 -11 9 -14 -9 -14 -12 0 -20 4 -17 9 3 5 -10 11 -29 13
-19 2 -32 2 -30 -1z m45 -26 c7 -8 8 -15 2 -15 -5 0 -15 7 -22 15 -7 8 -8 15
-2 15 5 0 15 -7 22 -15z m430 0 c29 -17 14 -20 -25 -5 -17 7 -24 7 -20 0 3 -6
2 -10 -4 -10 -13 0 -22 15 -14 24 10 10 36 6 63 -9z m-307 -12 c-7 -2 -21 -2
-30 0 -10 3 -4 5 12 5 17 0 24 -2 18 -5z"/>
<path d="M1260 2295 c0 -2 9 -9 20 -15 16 -9 20 -8 20 5 0 8 -9 15 -20 15 -11
0 -20 -2 -20 -5z"/>
<path d="M1592 2287 c10 -8 15 -17 11 -21 -4 -4 0 -4 8 -1 9 3 28 1 44 -5 25
-10 27 -9 15 5 -12 14 -10 15 16 9 16 -4 31 -10 34 -14 3 -3 20 -7 38 -8 33
-2 44 14 17 24 -8 4 -12 10 -9 15 3 5 -4 9 -15 9 -23 0 -29 -16 -9 -22 7 -3 8
-7 3 -10 -6 -2 -21 1 -35 8 -21 12 -22 14 -6 14 11 0 17 2 14 5 -3 3 -25 1
-48 -4 -27 -6 -53 -6 -69 0 -23 8 -24 8 -9 -4z"/>
<path d="M1808 2293 c7 -3 16 -2 19 1 4 3 -2 6 -13 5 -11 0 -14 -3 -6 -6z"/>
<path d="M1870 2296 c0 -2 7 -7 16 -10 8 -3 12 -2 9 4 -6 10 -25 14 -25 6z"/>
<path d="M2213 2292 c-9 -6 -4 -13 17 -26 17 -9 34 -15 39 -12 5 4 12 1 14 -4
3 -6 4 -5 3 2 -2 7 -10 12 -18 10 -9 -1 -21 5 -28 13 -11 13 -10 14 5 9 13 -5
16 -4 11 4 -8 14 -26 15 -43 4z"/>
<path d="M2290 2291 c0 -5 9 -11 21 -14 12 -3 18 -10 15 -16 -4 -5 3 -15 14
-21 12 -6 20 -7 20 -1 0 5 -8 12 -17 14 -15 4 -15 5 2 6 16 1 14 5 -13 21 -36
22 -42 24 -42 11z"/>
<path d="M2330 2296 c0 -2 7 -7 16 -10 8 -3 12 -2 9 4 -6 10 -25 14 -25 6z"/>
<path d="M2373 2287 c2 -6 17 -11 34 -11 17 -1 29 3 26 7 -2 4 8 5 24 1 16 -4
24 -3 20 2 -12 12 -108 13 -104 1z"/>
<path d="M2490 2295 c0 -2 10 -9 21 -16 13 -6 19 -7 15 -1 -3 6 0 13 6 15 7 3
1 6 -14 6 -16 1 -28 -1 -28 -4z"/>
<path d="M2695 2290 c28 -12 37 -12 30 0 -3 6 -16 10 -28 9 -21 0 -21 -1 -2
-9z"/>
<path d="M2908 2293 c7 -3 16 -2 19 1 4 3 -2 6 -13 5 -11 0 -14 -3 -6 -6z"/>
<path d="M3988 2283 c-6 -7 -7 -14 -2 -14 5 -1 -4 -5 -21 -10 -21 -5 -8 -6 40
-4 39 2 98 4 133 5 40 0 61 4 57 10 -3 6 -18 8 -33 4 -24 -5 -25 -4 -8 6 13 9
25 9 42 1 15 -6 24 -7 24 -1 0 12 2 12 -87 14 -40 1 -73 -1 -73 -6 0 -4 -7 -8
-16 -8 -8 0 -13 4 -10 8 8 13 -34 9 -46 -5z"/>
<path d="M4297 2288 c7 -8 9 -18 5 -23 -4 -4 3 -3 15 4 14 7 24 8 28 1 3 -5
11 -10 18 -10 16 0 -23 26 -53 35 -21 7 -23 6 -13 -7z"/>
<path d="M1516 2278 c3 -4 -2 -8 -11 -8 -9 0 -13 -5 -10 -10 4 -7 11 -7 18 -2
7 5 23 13 37 17 22 7 23 6 11 -9 -7 -9 -21 -16 -30 -17 -10 0 -11 -2 -3 -6 19
-7 14 -23 -5 -16 -14 4 -15 3 -7 -6 10 -11 44 -6 44 8 0 3 28 5 62 4 60 -1 58
0 -21 13 -23 4 -30 8 -22 14 11 6 11 9 0 16 -18 11 -70 13 -63 2z"/>
<path d="M4236 2281 c-3 -5 1 -14 9 -21 12 -10 15 -10 15 3 0 19 -16 31 -24
18z"/>
<path d="M1855 2268 c5 -11 20 -15 57 -15 38 1 45 3 28 9 -13 5 -31 6 -42 2
-10 -3 -26 0 -34 7 -12 10 -13 9 -9 -3z"/>
<path d="M3010 2270 c0 -5 5 -10 10 -10 6 0 10 5 10 10 0 6 -4 10 -10 10 -5 0
-10 -4 -10 -10z"/>
<path d="M3120 2270 c13 -8 12 -10 -4 -10 -17 0 -18 -2 -7 -12 9 -8 15 -9 17
-3 2 6 23 9 47 7 23 -3 39 -1 36 3 -4 3 -21 7 -38 7 -18 1 -34 5 -37 10 -3 4
-11 8 -17 8 -7 0 -6 -4 3 -10z"/>
<path d="M2410 2251 c0 -5 18 -9 40 -9 48 0 45 9 -5 15 -19 2 -35 -1 -35 -6z"/>
<path d="M2670 2250 c0 -5 10 -10 23 -10 18 0 19 2 7 10 -19 13 -30 13 -30 0z"/>
<path d="M1174 2235 c-7 -16 24 -71 33 -61 3 3 0 12 -7 21 -7 8 -10 24 -7 35
6 23 -11 27 -19 5z"/>
<path d="M1835 2240 c-4 -6 7 -10 27 -9 27 0 30 2 13 9 -27 12 -33 12 -40 0z"/>
<path d="M2207 2239 c7 -7 15 -10 18 -7 3 3 -2 9 -12 12 -14 6 -15 5 -6 -5z"/>
<path d="M2538 2243 c6 -2 18 -2 25 0 6 3 1 5 -13 5 -14 0 -19 -2 -12 -5z"/>
<path d="M2788 2243 c6 -2 18 -2 25 0 6 3 1 5 -13 5 -14 0 -19 -2 -12 -5z"/>
<path d="M2888 2243 c17 -2 47 -2 65 0 17 2 3 4 -33 4 -36 0 -50 -2 -32 -4z"/>
<path d="M3043 2243 c9 -2 23 -2 30 0 6 3 -1 5 -18 5 -16 0 -22 -2 -12 -5z"/>
<path d="M4244 2230 c14 -21 16 -65 16 -293 l0 -268 -25 -24 c-23 -24 -28 -25
-177 -26 -84 0 -180 -2 -213 -4 -33 -2 -355 -6 -715 -9 -360 -4 -857 -9 -1105
-12 l-450 -7 -21 24 c-25 28 -33 99 -34 291 0 107 -2 117 -17 112 -17 -5 -17
-5 -1 9 22 17 13 27 -21 26 -17 -1 -20 -3 -8 -6 9 -2 15 -8 12 -13 -3 -5 -13
-6 -23 -3 -11 4 -8 -2 8 -16 l25 -22 -24 11 c-17 9 -25 9 -30 1 -5 -8 -13 -7
-27 4 -10 8 -30 15 -44 15 -23 1 -23 2 -8 14 16 12 15 14 -10 25 -26 11 -26
11 -7 -5 19 -16 19 -16 -6 -10 -18 4 -29 1 -32 -7 -7 -18 17 -47 39 -47 16 0
17 2 4 11 -12 8 -10 9 9 7 14 -2 26 -10 28 -18 4 -13 3 -13 -7 0 -10 13 -11
13 -7 0 2 -8 13 -15 25 -14 17 0 19 -3 12 -17 -8 -14 -6 -16 10 -12 11 3 17 9
14 14 -7 12 19 12 32 0 5 -5 18 -11 29 -14 13 -3 9 -5 -12 -6 -34 -1 -51 -15
-32 -27 8 -4 9 -3 5 4 -4 7 -2 12 4 12 14 0 8 -22 -7 -27 -6 -2 -14 5 -18 17
-5 15 -12 19 -25 15 -11 -3 -33 1 -50 10 -29 15 -30 15 -30 -7 0 -17 -2 -20
-9 -9 -5 8 -7 20 -4 28 3 7 -3 16 -12 19 -13 5 -14 9 -3 15 10 7 10 9 -3 9
-18 0 -43 -46 -33 -62 4 -6 2 -8 -3 -5 -14 9 -37 -19 -27 -34 4 -7 3 -9 -4 -6
-15 10 -66 -83 -65 -118 1 -16 -1 -22 -4 -12 -7 27 -17 21 -43 -25 -28 -50
-36 -58 -70 -58 -20 0 -22 -2 -10 -10 13 -8 12 -10 -2 -10 -10 0 -18 5 -18 10
0 6 -78 10 -214 10 -133 0 -217 4 -221 10 -4 7 -13 7 -25 0 -11 -6 -54 -11
-97 -11 -68 -1 -75 -2 -54 -13 13 -7 33 -11 45 -9 11 2 32 -1 46 -6 21 -10 19
-10 -16 -5 -25 3 -45 1 -48 -5 -5 -7 -15 -7 -32 -1 -14 6 -36 7 -50 4 -15 -4
-24 -2 -24 6 0 6 5 8 13 4 8 -5 8 -3 -2 9 -11 15 -35 17 -177 16 -153 -1 -164
-3 -164 -20 0 -11 6 -19 13 -19 8 0 9 -3 1 -8 -6 -4 -12 -26 -12 -49 l-2 -43
264 0 c202 0 265 -3 269 -12 3 -10 9 -10 26 0 16 9 491 12 2287 12 2217 0
2265 1 2259 19 -3 11 1 26 11 36 23 22 4 69 -25 60 -10 -3 -29 -1 -42 4 -20 8
-16 10 21 7 25 -2 55 -8 67 -14 33 -18 38 -14 10 8 -23 18 -40 20 -185 20
-162 0 -187 -5 -162 -35 16 -20 5 -19 -25 1 -14 9 -25 12 -25 7 0 -17 24 -33
50 -34 l25 0 -25 -10 c-16 -7 -26 -7 -28 0 -2 6 -16 8 -33 4 -32 -6 -38 7 -13
31 14 15 12 16 -17 16 -31 0 -32 -1 -13 -15 12 -9 14 -14 6 -15 -7 0 -20 7
-28 15 -10 10 -11 15 -3 15 8 0 8 5 -2 17 -13 15 -12 15 10 3 21 -11 23 -10
18 3 -4 10 0 14 11 12 9 -1 16 -7 15 -12 -1 -5 13 -9 30 -10 19 0 23 1 10 4
-12 2 -29 16 -39 31 -24 37 -40 52 -56 52 -10 0 -9 -3 2 -10 9 -6 10 -10 3
-10 -18 0 -26 19 -14 34 9 10 7 15 -9 19 -13 3 -20 0 -20 -8 0 -8 -5 -17 -12
-21 -7 -4 -8 -3 -4 4 4 7 2 12 -5 12 -7 0 -9 -8 -6 -21 4 -16 3 -18 -8 -9 -7
6 -24 8 -37 5 -16 -4 -29 -1 -38 10 -11 14 -10 15 12 6 19 -7 25 -6 25 5 0 8
-11 14 -26 15 -28 1 -23 3 23 14 23 5 27 8 15 15 -7 5 -22 7 -31 4 -10 -3 -22
3 -30 15 -11 17 -15 18 -38 6 -17 -9 -31 -10 -41 -4 -11 7 -9 9 9 9 13 0 21 4
18 8 -9 14 10 32 44 42 18 5 30 7 26 3 -3 -3 -1 -12 6 -20 10 -12 7 -12 -16
-2 -22 10 -29 10 -42 -3 -14 -14 -10 -15 47 -17 34 -1 67 -5 73 -10 23 -17 45
-20 39 -5 -3 7 -9 14 -14 14 -5 0 -9 7 -9 15 0 8 -9 15 -20 15 -11 0 -20 4
-20 10 0 5 8 7 18 3 16 -6 16 -5 1 13 -9 10 -19 27 -23 38 -3 11 -12 16 -21
12 -17 -6 -30 10 -15 19 15 9 -5 42 -38 60 -15 9 -19 14 -9 11 11 -3 15 -2 12
4 -3 6 -13 10 -21 10 -8 0 -12 5 -9 10 13 21 -23 9 -39 -12 -9 -13 -14 -17
-11 -10 4 8 -2 12 -17 12 -17 0 -19 -3 -9 -9 7 -5 9 -10 5 -13 -19 -9 -67 10
-58 23 9 15 -23 21 -45 9 -17 -9 -21 -8 -21 5 0 9 5 13 10 10 6 -3 10 -2 10 4
0 5 -4 13 -10 16 -5 3 -10 15 -10 27 0 16 3 18 14 9 10 -9 15 -9 18 -1 2 8 11
8 31 1 28 -11 83 -5 92 10 8 12 -31 30 -72 34 -20 2 -39 7 -42 12 -10 15 -41
23 -41 12 0 -6 -9 -1 -21 12 l-21 24 16 -25z m76 -52 c0 -4 -4 -8 -9 -8 -6 0
-12 4 -15 8 -3 5 1 9 9 9 8 0 15 -4 15 -9z m35 -16 c-3 -3 -11 0 -18 7 -9 10
-8 11 6 5 10 -3 15 -9 12 -12z m35 8 c0 -5 -2 -10 -4 -10 -3 0 -8 5 -11 10 -3
6 -1 10 4 10 6 0 11 -4 11 -10z m71 -156 c17 -8 28 -18 25 -21 -3 -3 -20 4
-38 16 -39 24 -30 28 13 5z m-21 -13 c0 -5 14 -14 30 -20 17 -5 30 -13 30 -16
0 -10 -94 3 -98 14 -2 6 -8 11 -14 11 -5 0 -6 -9 -3 -21 5 -16 4 -20 -6 -14
-8 4 -3 -3 11 -14 26 -22 56 -27 62 -12 2 5 9 3 16 -5 11 -12 9 -14 -8 -14
-14 0 -19 -4 -14 -12 6 -10 5 -10 -8 0 -9 7 -27 10 -45 6 -20 -4 -33 -1 -39 7
-11 19 -12 49 -2 49 15 0 -3 21 -26 30 -16 7 -10 9 27 9 30 1 54 -5 63 -14 9
-8 23 -15 32 -14 13 0 11 3 -5 11 -23 11 -31 28 -13 28 6 0 10 -4 10 -9z
m-3143 -58 c-4 -3 -2 -12 4 -20 7 -8 8 -13 1 -13 -12 0 -23 26 -15 34 4 3 9 6
11 6 3 0 2 -3 -1 -7z m45 -68 c-3 -19 -7 -23 -17 -15 -10 8 -13 4 -11 -19 2
-27 0 -29 -18 -19 -14 7 -16 13 -8 16 6 2 12 10 12 19 0 11 -7 13 -30 8 -19
-4 -30 -3 -30 4 0 6 9 11 19 11 11 0 23 5 26 10 3 6 14 10 23 9 14 0 13 -2 -3
-9 -23 -10 -5 -13 19 -4 9 3 13 11 9 17 -3 5 -1 7 4 4 6 -4 8 -18 5 -32z m55
19 c-3 -3 -12 -4 -19 -1 -8 3 -5 6 6 6 11 1 17 -2 13 -5z m113 -24 c0 -5 -2
-10 -4 -10 -3 0 -8 5 -11 10 -3 6 -1 10 4 10 6 0 11 -4 11 -10z m2856 -15 c-4
-12 0 -14 18 -11 14 3 27 -1 29 -8 4 -10 -5 -11 -43 -3 -40 8 -46 12 -37 23
17 18 41 18 33 -1z m-2952 -24 c4 -5 -3 -7 -14 -4 -23 6 -26 13 -6 13 8 0 17
-4 20 -9z m81 1 c21 -15 15 -32 -12 -32 -14 0 -23 3 -20 7 4 3 2 12 -4 20 -9
10 -7 13 7 13 11 0 24 -4 29 -8z m2859 -28 c4 -11 2 -12 -14 -1 -11 6 -20 15
-20 19 0 12 28 -3 34 -18z m136 16 c0 -5 -3 -9 -7 -8 -5 1 -18 -3 -30 -10 -19
-11 -23 -10 -23 2 0 9 6 13 14 10 8 -3 17 -1 21 5 8 14 25 14 25 1z m-3283 -6
c-3 -3 -12 -4 -19 -1 -8 3 -5 6 6 6 11 1 17 -2 13 -5z m3108 -14 c17 -11 26
-20 22 -20 -11 0 -67 29 -67 35 0 10 16 4 45 -15z m-3060 -18 c-3 -3 -11 0
-18 7 -9 10 -8 11 6 5 10 -3 15 -9 12 -12z m-39 -39 c-7 -7 -26 7 -26 19 0 6
6 6 15 -2 9 -7 13 -15 11 -17z m56 19 c3 7 7 3 10 -10 8 -28 -4 -28 -28 0 -13
16 -14 19 -2 10 13 -10 17 -10 20 0z m158 -2 c0 -5 -4 -10 -9 -10 -6 0 -13 5
-16 10 -3 6 1 10 9 10 9 0 16 -4 16 -10z m2919 -19 c-6 -2 -18 4 -27 13 -15
15 -15 15 10 4 15 -7 23 -15 17 -17z m-3039 9 c0 -5 -2 -10 -4 -10 -3 0 -8 5
-11 10 -3 6 -1 10 4 10 6 0 11 -4 11 -10z m3168 -3 c20 -24 -3 -33 -25 -10
-20 21 -21 23 -4 23 10 0 23 -6 29 -13z m122 -27 c0 -5 0 -12 0 -15 0 -3 -2
-5 -5 -5 -3 0 -5 3 -4 6 0 4 -5 11 -13 15 -10 7 -9 9 5 9 9 0 17 -4 17 -10z
m-93 -35 c0 -8 -4 -15 -9 -15 -10 0 -11 14 -1 23 9 10 10 9 10 -8z m138 -3
c-3 -3 -11 0 -18 7 -9 10 -8 11 6 5 10 -3 15 -9 12 -12z m-3381 -14 c-3 -4 -9
-8 -15 -8 -5 0 -9 4 -9 8 0 5 7 9 15 9 8 0 12 -4 9 -9z m3191 2 c3 -6 -1 -7
-9 -4 -18 7 -21 14 -7 14 6 0 13 -4 16 -10z m157 -9 c14 -8 24 -19 21 -26 -2
-7 1 -15 9 -18 7 -2 1 -3 -14 -1 -22 3 -26 0 -21 -14 6 -15 5 -15 -11 -3 -13
11 -14 16 -4 22 7 5 9 9 3 9 -5 0 -21 10 -35 21 -24 21 -24 21 14 0 21 -12 41
-19 45 -15 3 4 1 9 -5 11 -6 2 -20 11 -30 19 -21 17 -14 15 28 -5z m-4504 -9
c6 -18 -15 -14 -22 4 -4 10 -1 14 6 12 6 -2 14 -10 16 -16z m996 9 c4 -5 -3
-7 -14 -4 -15 4 -18 1 -15 -16 2 -13 -1 -21 -11 -21 -17 0 -17 5 -4 31 11 20
35 25 44 10z m3742 -6 c17 -13 16 -14 -13 -4 -34 11 -42 19 -20 19 7 0 22 -7
33 -15z m-4651 -16 c4 -6 -25 -6 -53 0 -2 1 -1 5 2 10 7 10 43 3 51 -10z
m4085 11 c0 -5 -2 -10 -4 -10 -3 0 -8 5 -11 10 -3 6 -1 10 4 10 6 0 11 -4 11
-10z m-3240 -30 c30 -17 49 -30 42 -30 -12 0 -71 29 -102 49 -31 22 7 9 60
-19z m10 26 c0 -11 -19 -15 -25 -6 -3 5 1 10 9 10 9 0 16 -2 16 -4z m3355 -24
c-10 -2 -25 3 -33 12 -15 14 -13 15 17 3 23 -8 28 -13 16 -15z m30 18 c3 -6
-1 -7 -9 -4 -18 7 -21 14 -7 14 6 0 13 -4 16 -10z m530 0 c3 -6 -1 -7 -9 -4
-18 7 -21 14 -7 14 6 0 13 -4 16 -10z m-442 -12 c3 -10 7 -10 18 -1 10 8 20 9
29 3 12 -8 13 -10 1 -10 -11 0 -9 -5 5 -21 19 -22 19 -22 -2 -11 -11 6 -32 9
-45 6 -24 -5 -24 -4 -1 5 12 6 22 13 22 16 0 4 -4 4 -9 1 -5 -3 -22 1 -37 9
-26 13 -27 15 -7 15 12 0 23 -6 26 -12z m-4448 -7 c-3 -2 -16 -6 -28 -8 -15
-2 -18 0 -9 5 14 9 45 12 37 3z m30 -1 c3 -5 1 -10 -4 -10 -6 0 -11 5 -11 10
0 6 2 10 4 10 3 0 8 -4 11 -10z m130 -10 c-3 -5 -13 -6 -21 -3 -12 4 -13 8 -3
14 15 9 32 2 24 -11z m333 -21 c-13 -37 -17 -34 -11 8 3 18 9 30 14 28 4 -3 3
-19 -3 -36z m-153 13 c-3 -3 -11 0 -18 7 -9 10 -8 11 6 5 10 -3 15 -9 12 -12z
m582 1 c3 -7 -4 -9 -16 -6 -12 3 -18 9 -15 15 7 11 26 6 31 -9z m3860 11 c-3
-3 -12 -4 -19 -1 -8 3 -5 6 6 6 11 1 17 -2 13 -5z m-4557 -25 c12 -8 10 -9 -7
-4 -24 7 -33 -9 -10 -18 9 -4 9 -6 0 -6 -15 -1 -26 16 -18 29 8 13 16 12 35
-1z m4408 -6 c7 -7 9 -13 4 -13 -4 0 -16 6 -26 13 -14 10 -15 14 -4 14 7 0 19
-6 26 -14z m-4472 -20 c-4 -4 -12 -1 -19 7 -9 10 -9 11 1 6 7 -4 12 -2 13 6 0
11 2 11 6 0 3 -7 2 -16 -1 -19z m4544 12 c0 -2 -9 -3 -19 -2 -11 0 -18 5 -15
9 4 6 34 0 34 -7z m-1893 -1 c-3 -3 -12 -4 -19 -1 -8 3 -5 6 6 6 11 1 17 -2
13 -5z"/>
<path d="M4334 2235 c-15 -12 -16 -16 -5 -24 15 -10 48 -4 57 11 4 6 0 14 -7
19 -19 12 -22 11 -45 -6z m23 -11 c-3 -3 -12 -4 -19 -1 -8 3 -5 6 6 6 11 1 17
-2 13 -5z"/>
<path d="M972 2215 c0 -16 2 -22 5 -12 2 9 2 23 0 30 -3 6 -5 -1 -5 -18z"/>
<path d="M1111 2233 c0 -6 -4 -20 -7 -30 -5 -14 -4 -15 5 -7 7 7 11 20 8 30
-3 11 -5 14 -6 7z"/>
<path d="M1703 2233 c9 -2 25 -2 35 0 9 3 1 5 -18 5 -19 0 -27 -2 -17 -5z"/>
<path d="M1908 2233 c6 -2 18 -2 25 0 6 3 1 5 -13 5 -14 0 -19 -2 -12 -5z"/>
<path d="M2098 2233 c12 -2 30 -2 40 0 9 3 -1 5 -23 4 -22 0 -30 -2 -17 -4z"/>
<path d="M883 2183 c-7 -15 -11 -28 -9 -31 6 -6 28 38 24 48 -2 5 -9 -3 -15
-17z"/>
<path d="M1485 2198 c4 -11 -3 -14 -31 -12 l-36 3 25 -19 c14 -11 29 -20 34
-20 4 0 0 7 -10 14 -16 13 -15 14 15 12 23 -1 33 3 33 14 0 8 -8 16 -17 18
-12 2 -16 -1 -13 -10z"/>
<path d="M771 2172 c-12 -22 3 -42 30 -42 26 0 30 14 13 38 -19 27 -30 28 -43
4z"/>
<path d="M1405 2160 c3 -5 1 -10 -5 -10 -7 0 -7 -4 1 -13 7 -7 25 -11 42 -9
l30 5 -24 18 c-26 20 -54 26 -44 9z"/>
<path d="M1497 2153 c-3 -5 -1 -17 4 -28 7 -17 8 -17 8 8 1 27 -4 34 -12 20z"/>
<path d="M4433 2133 c-20 -7 -15 -22 6 -20 11 0 17 6 14 14 -3 7 -6 13 -7 12
0 0 -7 -3 -13 -6z"/>
<path d="M1454 2095 c5 -25 3 -26 -29 -24 -19 2 -38 -1 -42 -5 -5 -5 -2 -6 6
-1 11 6 13 4 7 -11 -4 -10 -4 -15 0 -12 4 4 16 2 27 -4 17 -8 19 -8 14 5 -4
11 3 18 25 22 17 4 27 10 22 14 -5 3 -9 12 -9 20 0 8 -6 16 -13 19 -9 3 -11
-4 -8 -23z"/>
<path d="M1390 2101 c-14 -3 -26 -12 -28 -19 -2 -10 2 -10 18 -2 11 6 24 8 29
5 13 -7 42 5 35 16 -6 10 -16 10 -54 0z"/>
<path d="M2267 2053 c-15 -14 -7 -43 12 -43 23 0 34 23 18 39 -13 13 -21 14
-30 4z"/>
<path d="M2008 2043 c-49 -4 -64 -21 -28 -30 18 -5 20 -14 20 -114 0 -90 -3
-109 -15 -109 -8 0 -15 -7 -15 -15 0 -13 15 -15 98 -13 l97 3 3 49 c4 59 -2
78 -23 70 -10 -4 -13 -13 -10 -25 11 -34 -4 -58 -41 -65 -20 -4 -39 -3 -44 2
-4 5 -11 55 -15 111 -6 101 -6 101 17 105 13 2 23 9 23 17 0 17 -6 18 -67 14z"/>
<path d="M3202 1992 c-30 -5 -56 -45 -48 -76 6 -26 42 -44 96 -48 30 -3 35 -7
35 -28 0 -19 -6 -26 -24 -28 -37 -6 -69 6 -76 28 -3 11 -13 20 -21 20 -12 0
-14 -10 -12 -42 2 -32 7 -42 18 -39 8 2 38 3 67 2 41 -2 57 3 73 19 42 42 13
100 -51 100 -43 0 -75 21 -66 44 10 25 77 22 84 -4 3 -11 14 -20 25 -20 16 0
19 6 16 37 -3 36 -4 37 -48 38 -25 0 -55 -1 -68 -3z"/>
<path d="M3410 1972 c-26 -26 -30 -38 -30 -82 0 -44 4 -56 29 -81 22 -22 39
-29 68 -29 47 0 111 36 94 53 -8 8 -18 7 -40 -6 -16 -9 -38 -17 -48 -17 -28 0
-63 28 -63 51 0 17 7 19 75 19 l75 0 0 29 c0 44 -37 81 -87 88 -37 5 -45 2
-73 -25z m98 -18 c40 -28 28 -44 -33 -44 -41 0 -55 4 -55 14 0 16 37 46 55 46
6 0 21 -7 33 -16z"/>
<path d="M3647 1982 c-42 -46 -6 -102 64 -102 39 0 65 -21 55 -45 -4 -10 -19
-15 -51 -15 -40 0 -47 3 -55 26 -9 22 -33 31 -31 11 1 -4 1 -22 1 -40 l0 -33
63 1 c81 2 107 16 107 59 0 42 -26 66 -71 66 -20 0 -44 6 -54 14 -17 12 -17
16 -5 30 20 25 72 17 85 -12 14 -32 29 -22 33 21 l3 37 -64 0 c-49 0 -68 -4
-80 -18z"/>
<path d="M2704 1980 c-34 -13 -54 -50 -54 -97 0 -79 32 -113 108 -113 41 0 82
23 82 46 0 18 -24 18 -40 -1 -21 -25 -76 -19 -100 12 -27 35 -14 43 73 43 61
0 67 2 67 20 0 37 -28 77 -61 89 -37 13 -46 13 -75 1z m86 -51 c7 -11 10 -23
7 -25 -3 -3 -30 -4 -61 -2 -56 3 -56 3 -41 26 22 30 80 31 95 1z"/>
<path d="M2928 1983 c-34 -3 -48 -8 -48 -19 0 -7 7 -14 15 -14 12 0 15 -14 15
-69 0 -52 -4 -70 -15 -75 -30 -11 -14 -26 29 -26 47 0 67 13 42 27 -9 5 -15
28 -17 67 -3 64 12 86 57 86 28 0 34 -17 34 -91 0 -47 -3 -59 -16 -59 -33 0
-6 -25 31 -28 46 -4 66 11 36 27 -18 10 -21 21 -21 86 0 63 -3 76 -19 85 -19
10 -29 10 -123 3z"/>
<path d="M2435 1956 c-74 -74 -15 -203 88 -190 37 4 77 30 77 49 0 19 -19 19
-41 -1 -23 -21 -75 -21 -99 1 -27 25 -27 88 1 116 28 28 79 23 96 -11 11 -23
33 -35 33 -17 0 4 0 22 0 41 l0 33 -65 2 c-57 1 -69 -2 -90 -23z"/>
<path d="M2227 1964 c-10 -11 3 -24 24 -24 17 0 19 -7 19 -69 0 -68 -1 -70
-27 -73 -14 -2 -28 -9 -31 -16 -3 -10 13 -12 72 -10 42 2 76 7 76 13 0 6 -9
10 -20 10 -30 1 -32 9 -32 95 l1 80 -38 0 c-21 0 -41 -3 -44 -6z"/>
<path d="M4530 1840 c-18 -12 -2 -12 25 0 13 6 15 9 5 9 -8 0 -22 -4 -30 -9z"/>
<path d="M4610 1816 c0 -2 11 -6 25 -8 13 -3 22 -1 19 3 -5 9 -44 13 -44 5z"/>
<path d="M421 1779 c-18 -11 -31 -23 -27 -26 3 -3 -1 -15 -9 -27 -20 -27 -19
-36 4 -36 11 0 22 8 25 18 10 31 52 64 77 60 13 -2 34 -18 46 -37 26 -38 30
-34 9 8 -16 29 -56 61 -78 61 -7 0 -28 -9 -47 -21z"/>
<path d="M5324 1682 c-34 -3 -114 -65 -114 -87 0 -8 -10 -31 -22 -52 -52 -91
-72 -137 -60 -141 8 -2 4 -11 -10 -23 -14 -11 -18 -18 -10 -19 9 0 12 -10 10
-27 -3 -25 -8 -28 -50 -33 -45 -5 -50 -9 -103 -77 -30 -40 -55 -80 -55 -89 0
-32 -65 -114 -91 -114 -22 0 -69 -46 -79 -76 -22 -65 -34 -68 -203 -64 -175 4
-198 4 -327 -1 -89 -4 -95 -5 -98 -26 -5 -34 -35 -36 -103 -8 -43 19 -80 27
-123 27 -63 0 -682 2 -816 2 -41 0 -176 -1 -300 -2 -124 -1 -385 -2 -580 -2
-195 0 -394 -2 -441 -6 -102 -7 -135 5 -170 63 -32 54 -56 80 -119 126 -30 23
-63 49 -74 58 -10 10 -24 15 -32 12 -8 -3 -14 -1 -14 3 0 5 -87 9 -192 9 -106
0 -220 2 -253 4 -68 4 -173 -7 -181 -21 -3 -4 2 -15 11 -24 12 -12 28 -15 73
-10 31 3 109 5 172 5 63 0 131 5 149 11 25 7 37 7 42 -2 4 -6 14 -8 23 -5 9 4
16 2 16 -3 0 -6 27 -10 60 -10 68 0 137 -23 162 -54 28 -34 30 -88 14 -351
-25 -384 -42 -488 -90 -534 l-31 -29 -460 -6 c-253 -3 -509 -8 -570 -11 -60
-4 -123 -2 -139 2 -34 10 -59 43 -38 50 6 3 12 10 12 17 0 18 86 86 108 86 11
0 30 -8 43 -19 47 -36 122 -63 174 -62 71 2 133 21 138 43 4 15 12 17 38 13
19 -3 36 -11 40 -17 4 -6 31 -19 60 -30 56 -21 186 -28 198 -12 3 5 12 10 20
12 7 1 30 16 50 33 36 29 38 33 40 95 1 36 -3 72 -9 79 -6 7 -17 62 -23 122
-19 164 -56 219 -141 209 -30 -3 -50 -16 -90 -55 -28 -28 -56 -51 -62 -51 -6
0 -19 -9 -29 -20 -24 -26 -70 -26 -132 1 -90 40 -136 42 -222 9 -42 -17 -86
-30 -99 -30 -12 0 -48 13 -80 29 -31 15 -76 31 -99 34 l-43 5 0 -319 0 -319
3000 0 3000 0 0 99 0 99 -50 16 c-47 15 -53 15 -85 1 -27 -13 -60 -16 -167
-13 -119 3 -136 5 -165 26 -29 20 -63 21 -63 1 0 -30 -90 -33 -1045 -31 -528
1 -1261 1 -1628 2 -644 0 -669 1 -707 20 -44 23 -78 61 -199 225 -122 167
-144 202 -138 219 13 34 95 36 1252 30 627 -4 1156 -5 1175 -4 19 2 437 2 928
0 l892 -2 0 42 0 43 -314 -7 c-427 -9 -412 -16 -422 210 -3 76 -8 180 -10 229
-3 50 -6 104 -6 120 -3 57 10 200 21 228 6 16 11 32 11 36 0 4 9 16 20 26 11
10 20 15 20 10 0 -4 6 -2 13 4 10 7 115 11 330 12 174 1 322 6 329 11 29 18
-19 29 -127 28 -60 -1 -200 0 -310 2 -110 2 -214 2 -231 0z"/>
<path d="M358 1673 c7 -3 16 -2 19 1 4 3 -2 6 -13 5 -11 0 -14 -3 -6 -6z"/>
<path d="M5585 1376 c-16 -12 -16 -15 0 -62 14 -40 16 -69 11 -154 -5 -70 -12
-110 -21 -121 -20 -21 -19 -36 4 -49 60 -32 142 12 95 50 -9 9 -14 26 -12 48
7 81 78 62 113 -30 22 -55 51 -80 86 -71 27 7 24 22 -16 89 -19 32 -35 62 -35
66 0 5 9 26 20 48 34 67 23 144 -25 176 -34 22 -194 29 -220 10z m188 -67 c21
-26 22 -58 1 -87 -21 -30 -98 -32 -114 -3 -17 32 -12 79 11 102 26 26 75 20
102 -12z"/>
<path d="M5969 1237 c-9 -12 -22 -39 -28 -60 -16 -49 1 -126 35 -158 l24 -22
0 131 c0 73 -3 132 -7 132 -5 0 -15 -11 -24 -23z"/>
<path d="M63 1153 l-63 -4 0 -39 0 -40 63 -1 c128 -2 284 2 350 8 169 15 -16
86 -212 81 -42 -1 -104 -3 -138 -5z"/>
</g>
</svg>
